<svg xmlns="http://www.w3.org/2000/svg" width="1200" height="630" viewBox="0 0 1200 630" fill="none">
  <rect width="1200" height="630" fill="#2f4a3b"/>
  <g stroke="#8aa091" stroke-width="2" opacity="0.22" fill="none" stroke-linecap="round">
    <path d="M-40 140 C 240 80, 440 210, 740 140 S 1200 70, 1300 160"/>
    <path d="M-40 230 C 250 150, 460 300, 760 230 S 1210 140, 1300 250"/>
    <path d="M-40 330 C 260 240, 480 410, 780 330 S 1220 230, 1300 350"/>
    <path d="M-40 440 C 270 340, 500 520, 790 440 S 1230 330, 1300 460"/>
    <path d="M-40 540 C 280 440, 510 640, 800 540 S 1240 430, 1300 560"/>
  </g>
  <text x="90" y="250" fill="#faf6ee" font-family="Georgia, 'Times New Roman', serif" font-size="82" font-weight="500">Andres Remedial</text>
  <text x="92" y="322" fill="#9cc3aa" font-family="Georgia, serif" font-size="40">Remedial Massage · Mornington</text>
  <text x="92" y="392" fill="#c7d6c9" font-family="Helvetica, Arial, sans-serif" font-size="28">Treatment-focused massage on the Mornington Peninsula</text>
  <g transform="translate(92 470)">
    <rect width="270" height="58" rx="29" fill="#4d7a60"/>
    <text x="135" y="38" fill="#faf6ee" font-family="Helvetica, Arial, sans-serif" font-size="24" font-weight="600" text-anchor="middle">Book an appointment</text>
  </g>
</svg>
